<?xml version="1.0" encoding="utf-8"?>
<!-- Generator: Adobe Illustrator 27.5.0, SVG Export Plug-In . SVG Version: 6.00 Build 0)  -->
<svg version="1.1" id="Layer_1" xmlns="http://www.w3.org/2000/svg" xmlns:xlink="http://www.w3.org/1999/xlink" x="0px" y="0px"
	 viewBox="0 0 324.084 312.926" style="enable-background:new 0 0 324.084 312.926;" xml:space="preserve">
<g>
	<g>
		<path style="fill:#FFFFFF;" d="M37.969,194.135c1.396,2.752,2.931,5.449,4.565,8.026c0.447,0.704,0.964,1.368,1.544,1.986
			c0.153,0.226,0.308,0.45,0.466,0.673c7.97,11.198,17.623,22.4,29.512,34.25c10.134,10.1,21.293,19.975,34.115,30.191
			c10.948,8.723,23.104,17.68,37.168,27.386c0.078,0.054,0.156,0.107,0.234,0.161c0.81,0.969,1.751,1.826,2.807,2.547l1.625,1.109
			c1.114,0.758,2.229,1.514,3.352,2.268c2.304,1.55,4.987,2.369,7.762,2.369c2.851,0,5.596-0.86,7.951-2.497l0.424-0.296
			c0.96-0.667,1.917-1.335,2.864-2.001c29.414-20.603,51.587-38.535,69.782-56.433c0.609-0.6,1.157-1.248,1.642-1.94
			c13.171-13.018,23.922-25.652,32.824-38.572c0.115-0.166,0.227-0.334,0.338-0.503c0.172-0.227,0.328-0.453,0.467-0.673
			c0.125-0.193,0.247-0.389,0.368-0.585l0.081-0.13c9.382-14.346,14.799-31.107,15.668-48.485c0.543-10.848-0.784-21.6-3.85-31.445
			l23.477-33.151c3.728-5.262,3.77-12.236,0.105-17.354c-2.507-3.502-8.295-10.49-18.895-17.94
			c-12.269-8.623-27.484-15.521-45.224-20.498c-17.701-4.968-34.254-6.997-49.199-6.028c-12.925,0.836-21.519,3.785-25.493,5.468
			c-5.829,2.47-9.447,8.456-9.003,14.899l2.471,35.777c-0.899,0.539-1.779,1.09-2.637,1.648c-1.956,1.272-3.881,2.633-5.765,4.072
			c-8.354-6.128-17.677-10.896-27.384-13.97c-1.441-0.456-2.953-0.889-4.619-1.319c-7.132-1.996-14.293-3.01-21.287-3.01
			c-1.475,0-3.076,0.047-4.892,0.143c-5.137,0.173-10.262,0.763-15.236,1.755c-11.94,2.385-22.934,7.379-31.793,14.443
			c-8.296,6.614-15.163,15.387-19.857,25.371c-4.452,9.467-7.035,19.925-7.677,31.082c-0.617,10.719,0.578,21.499,3.551,32.042
			C32.2,181.631,34.771,188.077,37.969,194.135z"/>
		<path style="fill:#F1F1F1;" d="M36.286,192.451c1.419,2.742,2.931,5.45,4.566,8.027c0.448,0.704,0.964,1.368,1.545,1.986
			c0.153,0.226,0.307,0.449,0.466,0.672c7.97,11.199,17.623,22.401,29.512,34.251c10.134,10.1,21.293,19.976,34.115,30.19
			c10.948,8.723,23.105,17.681,37.168,27.387c0.078,0.054,0.156,0.107,0.234,0.161c0.809,0.969,1.751,1.825,2.806,2.546l1.626,1.11
			c1.114,0.758,2.229,1.513,3.352,2.269c2.303,1.55,4.987,2.369,7.762,2.369c2.851,0,5.596-0.861,7.951-2.498l0.424-0.296
			c0.96-0.667,1.918-1.335,2.864-2c29.415-20.603,51.588-38.535,69.783-56.433c0.609-0.6,1.157-1.248,1.642-1.941
			c13.171-13.017,23.921-25.651,32.824-38.571c0.115-0.166,0.227-0.334,0.338-0.503c0.172-0.229,0.327-0.454,0.468-0.674
			c0.123-0.193,0.247-0.389,0.368-0.584l0.081-0.13c9.382-14.346,14.799-31.108,15.669-48.485c0.542-10.848-0.784-21.6-3.85-31.445
			l23.477-33.152c3.728-5.261,3.77-12.235,0.105-17.354c-2.507-3.502-8.295-10.49-18.895-17.939
			c-12.268-8.624-27.483-15.521-45.223-20.499c-17.701-4.967-34.254-6.997-49.2-6.028c-12.925,0.837-21.519,3.785-25.492,5.469
			c-5.829,2.469-9.447,8.456-9.003,14.899l2.472,35.777c-0.899,0.54-1.779,1.091-2.637,1.648c-1.956,1.272-3.881,2.634-5.765,4.073
			c-8.354-6.129-17.676-10.897-27.384-13.97c-1.441-0.457-2.958-0.872-4.619-1.319c-7.152-1.925-14.293-3.01-21.287-3.01
			c-1.475,0-3.076,0.064-4.891,0.144c-5.136,0.223-10.263,0.762-15.237,1.755c-11.94,2.384-22.934,7.378-31.793,14.442
			c-8.296,6.615-15.163,15.388-19.857,25.371c-4.452,9.468-7.035,19.925-7.678,31.083c-0.617,10.718,0.578,21.498,3.551,32.042
			C30.517,179.948,33.138,186.368,36.286,192.451z"/>
		<path style="fill:#E2E2E2;" d="M34.603,190.769c1.418,2.741,2.931,5.449,4.565,8.026c0.448,0.705,0.964,1.369,1.545,1.986
			c0.153,0.226,0.308,0.45,0.466,0.673c7.97,11.199,17.623,22.401,29.512,34.25c10.133,10.101,21.292,19.977,34.115,30.191
			c10.948,8.723,23.104,17.68,37.168,27.386c0.078,0.054,0.156,0.107,0.234,0.162c0.81,0.968,1.752,1.825,2.806,2.546l1.626,1.11
			c1.114,0.758,2.229,1.513,3.352,2.267c2.304,1.551,4.987,2.369,7.762,2.369c2.851,0,5.596-0.86,7.951-2.497l0.425-0.296
			c0.959-0.667,1.917-1.335,2.864-2c29.414-20.603,51.587-38.535,69.782-56.434c0.609-0.599,1.157-1.248,1.642-1.94
			c13.171-13.017,23.922-25.652,32.824-38.571c0.115-0.166,0.227-0.334,0.338-0.503c0.172-0.229,0.327-0.455,0.468-0.674
			c0.124-0.194,0.247-0.389,0.368-0.584l0.081-0.13c9.382-14.346,14.799-31.108,15.668-48.485c0.542-10.849-0.784-21.6-3.85-31.446
			l23.477-33.151c3.728-5.261,3.77-12.235,0.105-17.354c-2.507-3.502-8.295-10.489-18.895-17.939
			c-12.269-8.623-27.484-15.52-45.224-20.498c-17.701-4.967-34.254-6.997-49.2-6.028c-12.925,0.837-21.518,3.785-25.492,5.468
			c-5.829,2.47-9.447,8.457-9.003,14.899l2.471,35.777c-0.899,0.54-1.779,1.09-2.637,1.648c-1.956,1.272-3.881,2.633-5.765,4.073
			c-8.355-6.129-17.677-10.897-27.384-13.97c-1.441-0.457-2.958-0.872-4.619-1.319c-7.152-1.926-14.293-3.01-21.287-3.01
			c-1.475,0-3.075,0.064-4.892,0.143c-5.135,0.223-10.263,0.763-15.236,1.756C70.794,71.054,59.8,76.048,50.94,83.112
			c-8.296,6.615-15.163,15.388-19.857,25.371c-4.452,9.468-7.035,19.925-7.677,31.083c-0.617,10.718,0.578,21.498,3.551,32.042
			C28.834,178.266,31.455,184.686,34.603,190.769z"/>
		<path style="fill:#D4D4D4;" d="M32.92,189.086c1.419,2.741,2.931,5.449,4.565,8.026c0.448,0.704,0.964,1.368,1.545,1.986
			c0.153,0.226,0.308,0.45,0.466,0.673c7.97,11.198,17.623,22.401,29.512,34.25c10.134,10.101,21.293,19.976,34.115,30.191
			c10.948,8.723,23.104,17.68,37.168,27.386c0.078,0.054,0.157,0.107,0.234,0.161c0.81,0.969,1.752,1.826,2.807,2.547l1.625,1.109
			c1.114,0.758,2.229,1.514,3.352,2.268c2.304,1.55,4.988,2.369,7.762,2.369c2.851,0,5.595-0.86,7.951-2.497l0.424-0.296
			c0.96-0.667,1.917-1.335,2.864-2.001c29.414-20.603,51.588-38.535,69.782-56.433c0.609-0.6,1.158-1.248,1.642-1.94
			c13.172-13.018,23.922-25.652,32.824-38.572c0.115-0.166,0.227-0.334,0.338-0.502c0.172-0.229,0.327-0.455,0.467-0.674
			c0.124-0.194,0.247-0.389,0.368-0.585l0.081-0.13c9.382-14.346,14.799-31.107,15.668-48.485
			c0.542-10.848-0.784-21.599-3.85-31.445l23.478-33.151c3.728-5.262,3.77-12.236,0.104-17.354
			c-2.507-3.502-8.295-10.489-18.895-17.939c-12.269-8.623-27.484-15.521-45.223-20.498c-17.701-4.968-34.254-6.997-49.2-6.028
			c-12.925,0.836-21.519,3.785-25.492,5.468c-5.829,2.47-9.447,8.456-9.003,14.899l2.471,35.777c-0.899,0.54-1.779,1.09-2.636,1.648
			c-1.956,1.271-3.881,2.633-5.765,4.072c-8.354-6.128-17.677-10.896-27.384-13.97c-1.441-0.456-2.958-0.872-4.619-1.319
			c-7.152-1.925-14.294-3.009-21.287-3.009c-1.475,0-3.075,0.063-4.891,0.143c-5.136,0.223-10.263,0.763-15.237,1.755
			c-11.94,2.385-22.934,7.379-31.793,14.443c-8.296,6.614-15.163,15.388-19.857,25.371c-4.452,9.467-7.035,19.925-7.677,31.082
			c-0.617,10.719,0.578,21.499,3.551,32.043C27.151,176.583,29.771,183.004,32.92,189.086z"/>
		<path style="fill:#C5C5C5;" d="M31.237,187.402c1.419,2.742,2.931,5.45,4.565,8.027c0.448,0.704,0.964,1.368,1.545,1.986
			c0.153,0.225,0.308,0.45,0.466,0.673c7.97,11.198,17.623,22.4,29.512,34.25c10.133,10.1,21.292,19.976,34.115,30.19
			c10.948,8.723,23.104,17.681,37.168,27.387c0.078,0.054,0.156,0.107,0.234,0.161c0.809,0.969,1.751,1.825,2.806,2.547l1.626,1.109
			c1.114,0.758,2.229,1.513,3.352,2.269c2.303,1.55,4.987,2.369,7.762,2.369c2.851,0,5.596-0.861,7.951-2.498l0.424-0.295
			c0.96-0.668,1.918-1.336,2.864-2.001c29.415-20.603,51.588-38.535,69.783-56.433c0.609-0.6,1.157-1.248,1.642-1.941
			c13.171-13.017,23.921-25.651,32.824-38.571c0.114-0.166,0.227-0.334,0.338-0.503c0.172-0.229,0.327-0.454,0.468-0.674
			c0.124-0.193,0.247-0.389,0.368-0.584l0.081-0.13c9.382-14.346,14.799-31.108,15.668-48.485c0.542-10.848-0.784-21.6-3.85-31.445
			l23.477-33.152c3.728-5.261,3.77-12.235,0.105-17.354c-2.507-3.502-8.295-10.49-18.895-17.939
			c-12.268-8.623-27.483-15.52-45.223-20.498c-17.701-4.968-34.254-6.998-49.2-6.029c-12.925,0.837-21.519,3.785-25.492,5.469
			c-5.829,2.469-9.447,8.456-9.003,14.899l2.472,35.776c-0.899,0.54-1.779,1.091-2.637,1.649c-1.956,1.271-3.881,2.633-5.765,4.072
			c-8.355-6.129-17.677-10.897-27.385-13.97c-1.44-0.456-2.957-0.872-4.619-1.319c-7.152-1.925-14.293-3.01-21.287-3.01
			c-1.475,0-3.076,0.064-4.892,0.144c-5.135,0.223-10.263,0.762-15.237,1.755c-11.94,2.384-22.934,7.378-31.794,14.443
			c-8.296,6.614-15.163,15.387-19.857,25.37c-4.452,9.468-7.035,19.925-7.678,31.083c-0.617,10.718,0.578,21.498,3.552,32.042
			C25.468,174.9,28.089,181.319,31.237,187.402z"/>
		<path style="fill:#B7B7B7;" d="M29.554,185.72c1.418,2.741,2.931,5.45,4.565,8.027c0.448,0.704,0.964,1.368,1.545,1.985
			c0.153,0.226,0.308,0.45,0.466,0.673c7.97,11.199,17.623,22.401,29.512,34.25c10.134,10.101,21.293,19.977,34.115,30.191
			c10.948,8.723,23.104,17.68,37.168,27.386c0.078,0.054,0.157,0.107,0.234,0.162c0.809,0.968,1.751,1.825,2.806,2.546l1.625,1.11
			c1.114,0.758,2.229,1.513,3.352,2.268c2.304,1.551,4.988,2.37,7.762,2.37c2.851,0,5.595-0.861,7.95-2.498l0.425-0.296
			c0.959-0.667,1.918-1.335,2.864-2c29.414-20.603,51.587-38.535,69.782-56.434c0.609-0.599,1.157-1.247,1.642-1.94
			c13.171-13.017,23.922-25.651,32.824-38.571c0.115-0.166,0.227-0.334,0.338-0.503c0.172-0.229,0.327-0.455,0.467-0.674
			c0.124-0.193,0.247-0.389,0.368-0.584l0.081-0.13c9.382-14.346,14.799-31.108,15.668-48.485c0.543-10.849-0.784-21.6-3.85-31.446
			l23.477-33.151c3.729-5.261,3.77-12.235,0.105-17.354c-2.507-3.502-8.295-10.489-18.895-17.939
			c-12.268-8.623-27.484-15.52-45.224-20.498c-17.701-4.967-34.254-6.997-49.199-6.028c-12.925,0.837-21.519,3.785-25.493,5.468
			c-5.828,2.47-9.446,8.457-9.003,14.899l2.471,35.777c-0.899,0.54-1.779,1.09-2.636,1.649c-1.956,1.272-3.881,2.633-5.765,4.073
			c-8.355-6.129-17.677-10.897-27.384-13.97c-1.441-0.457-2.958-0.872-4.619-1.319c-7.152-1.926-14.294-3.01-21.287-3.01
			c-1.475,0-3.075,0.065-4.892,0.143c-5.135,0.223-10.262,0.763-15.236,1.756c-11.94,2.384-22.934,7.378-31.793,14.442
			c-8.296,6.615-15.163,15.388-19.857,25.371c-4.452,9.468-7.035,19.925-7.677,31.083c-0.617,10.718,0.578,21.498,3.551,32.042
			C23.785,173.217,26.406,179.637,29.554,185.72z"/>
		<path style="fill:#A8A8A8;" d="M27.871,184.037c1.419,2.741,2.931,5.449,4.565,8.026c0.448,0.704,0.964,1.368,1.545,1.986
			c0.153,0.226,0.308,0.45,0.466,0.673c7.97,11.199,17.624,22.401,29.512,34.25c10.134,10.101,21.293,19.977,34.115,30.191
			c10.948,8.723,23.104,17.68,37.169,27.386c0.078,0.054,0.156,0.107,0.234,0.161c0.81,0.969,1.752,1.826,2.807,2.547l1.626,1.109
			c1.114,0.758,2.229,1.514,3.351,2.269c2.304,1.55,4.988,2.369,7.762,2.369c2.851,0,5.596-0.86,7.951-2.497l0.424-0.296
			c0.96-0.667,1.917-1.335,2.864-2c29.415-20.604,51.588-38.536,69.783-56.434c0.609-0.6,1.157-1.248,1.642-1.94
			c13.171-13.018,23.921-25.652,32.824-38.572c0.114-0.166,0.227-0.334,0.338-0.502c0.172-0.229,0.327-0.455,0.468-0.674
			c0.124-0.194,0.247-0.389,0.368-0.585l0.081-0.13c9.382-14.346,14.799-31.107,15.668-48.484c0.543-10.849-0.784-21.6-3.85-31.446
			l23.478-33.151c3.728-5.262,3.77-12.236,0.104-17.354c-2.506-3.502-8.294-10.489-18.895-17.939
			c-12.268-8.623-27.483-15.521-45.223-20.498c-17.701-4.968-34.254-6.997-49.2-6.028c-12.925,0.837-21.519,3.785-25.492,5.468
			c-5.829,2.47-9.447,8.456-9.003,14.899l2.472,35.777c-0.899,0.54-1.779,1.09-2.637,1.648c-1.956,1.271-3.881,2.633-5.765,4.072
			c-8.354-6.128-17.676-10.896-27.384-13.97c-1.441-0.456-2.957-0.872-4.619-1.319c-7.152-1.925-14.293-3.009-21.287-3.009
			c-1.476,0-3.076,0.063-4.892,0.143c-5.136,0.223-10.263,0.763-15.237,1.755c-11.94,2.385-22.934,7.379-31.793,14.443
			c-8.296,6.615-15.163,15.388-19.857,25.371c-4.452,9.467-7.035,19.925-7.677,31.082c-0.617,10.719,0.578,21.499,3.551,32.043
			C22.102,171.534,24.723,177.954,27.871,184.037z"/>
		<path style="fill:#9A9A9A;" d="M26.188,182.355c1.418,2.741,2.931,5.449,4.565,8.026c0.447,0.704,0.964,1.368,1.544,1.986
			c0.153,0.226,0.308,0.45,0.466,0.673c7.97,11.198,17.623,22.4,29.512,34.25c10.133,10.101,21.293,19.976,34.115,30.191
			c10.948,8.722,23.104,17.68,37.168,27.386c0.078,0.054,0.156,0.108,0.234,0.161c0.81,0.969,1.751,1.826,2.806,2.547l1.626,1.109
			c1.114,0.758,2.229,1.513,3.352,2.269c2.304,1.55,4.987,2.369,7.762,2.369c2.851,0,5.596-0.861,7.951-2.497l0.424-0.296
			c0.96-0.668,1.918-1.336,2.865-2.001c29.414-20.603,51.587-38.535,69.782-56.433c0.609-0.6,1.157-1.248,1.642-1.941
			c13.171-13.017,23.921-25.651,32.824-38.571c0.115-0.166,0.227-0.334,0.338-0.503c0.172-0.227,0.327-0.454,0.468-0.673
			c0.125-0.194,0.247-0.39,0.368-0.585l0.081-0.13c9.382-14.346,14.799-31.107,15.669-48.485c0.542-10.848-0.784-21.6-3.85-31.445
			l23.477-33.151c3.728-5.262,3.77-12.236,0.105-17.354c-2.507-3.502-8.295-10.49-18.895-17.939
			c-12.269-8.623-27.484-15.521-45.224-20.498c-17.701-4.968-34.254-6.997-49.2-6.029c-12.924,0.837-21.519,3.785-25.492,5.469
			c-5.829,2.47-9.447,8.456-9.003,14.899l2.471,35.776c-0.899,0.541-1.779,1.091-2.637,1.649c-1.956,1.271-3.881,2.633-5.765,4.072
			c-8.355-6.128-17.677-10.897-27.385-13.97c-1.44-0.456-2.957-0.872-4.619-1.319c-7.152-1.925-14.293-3.01-21.287-3.01
			c-1.475,0-3.076,0.064-4.892,0.144c-5.135,0.223-10.263,0.763-15.237,1.755C62.38,62.64,51.386,67.633,42.526,74.698
			c-8.296,6.614-15.163,15.387-19.858,25.37c-4.452,9.468-7.035,19.926-7.678,31.083c-0.617,10.718,0.578,21.499,3.552,32.042
			C20.419,169.852,23.04,176.271,26.188,182.355z"/>
		<path style="fill:#8B8B8B;" d="M24.505,180.671c1.418,2.741,2.931,5.45,4.565,8.027c0.448,0.704,0.964,1.368,1.544,1.986
			c0.153,0.226,0.308,0.449,0.466,0.672c7.97,11.199,17.624,22.401,29.512,34.251c10.134,10.1,21.293,19.976,34.115,30.19
			c10.948,8.723,23.104,17.681,37.168,27.386c0.078,0.055,0.156,0.108,0.234,0.162c0.81,0.969,1.752,1.825,2.807,2.547l1.626,1.109
			c1.113,0.758,2.229,1.513,3.351,2.268c2.304,1.551,4.988,2.37,7.762,2.37c2.851,0,5.596-0.861,7.951-2.498l0.424-0.296
			c0.96-0.667,1.917-1.335,2.864-2c29.415-20.604,51.588-38.535,69.782-56.434c0.609-0.599,1.158-1.247,1.642-1.941
			c13.172-13.017,23.922-25.651,32.824-38.571c0.115-0.166,0.227-0.334,0.338-0.503c0.172-0.229,0.327-0.454,0.467-0.674
			c0.124-0.193,0.247-0.389,0.368-0.584l0.08-0.13c9.382-14.346,14.799-31.108,15.669-48.485c0.542-10.849-0.784-21.6-3.85-31.445
			l23.477-33.152c3.728-5.261,3.77-12.235,0.105-17.354c-2.506-3.503-8.295-10.49-18.895-17.94
			c-12.269-8.623-27.484-15.52-45.223-20.498c-17.701-4.967-34.254-6.997-49.2-6.028c-12.925,0.837-21.519,3.785-25.493,5.468
			c-5.828,2.47-9.446,8.457-9.003,14.9l2.472,35.776c-0.899,0.54-1.779,1.091-2.637,1.648c-1.956,1.272-3.881,2.634-5.765,4.073
			c-8.355-6.129-17.676-10.897-27.384-13.97c-1.441-0.457-2.957-0.872-4.619-1.319c-7.152-1.925-14.293-3.01-21.287-3.01
			c-1.475,0-3.075,0.064-4.891,0.143c-5.136,0.223-10.263,0.763-15.237,1.756c-11.94,2.384-22.934,7.378-31.793,14.442
			C32.547,79.63,25.68,88.402,20.986,98.386c-4.452,9.468-7.035,19.925-7.677,31.083c-0.617,10.718,0.578,21.498,3.551,32.042
			C18.736,168.168,21.357,174.589,24.505,180.671z"/>
		<path style="fill:#7D7D7D;" d="M22.822,178.988c1.419,2.741,2.931,5.449,4.565,8.026c0.448,0.704,0.964,1.369,1.545,1.986
			c0.153,0.226,0.308,0.45,0.466,0.673c7.97,11.199,17.624,22.401,29.512,34.25c10.134,10.101,21.293,19.977,34.115,30.191
			c10.948,8.723,23.104,17.68,37.168,27.386c0.078,0.054,0.156,0.107,0.234,0.161c0.809,0.969,1.751,1.826,2.806,2.547l1.625,1.109
			c1.114,0.758,2.229,1.514,3.352,2.269c2.303,1.55,4.987,2.369,7.762,2.369c2.851,0,5.596-0.86,7.951-2.497l0.424-0.296
			c0.96-0.667,1.917-1.335,2.865-2c29.414-20.603,51.587-38.535,69.782-56.434c0.609-0.599,1.157-1.247,1.642-1.94
			c13.171-13.018,23.921-25.652,32.824-38.571c0.114-0.167,0.227-0.334,0.338-0.503c0.172-0.229,0.327-0.455,0.468-0.674
			c0.124-0.193,0.247-0.389,0.368-0.584l0.081-0.131c9.382-14.345,14.799-31.107,15.669-48.484c0.542-10.849-0.784-21.6-3.85-31.446
			l23.477-33.151c3.728-5.261,3.77-12.236,0.105-17.354c-2.507-3.502-8.295-10.489-18.895-17.94
			c-12.268-8.623-27.483-15.519-45.223-20.498c-17.701-4.967-34.254-6.997-49.2-6.028c-12.925,0.837-21.519,3.785-25.492,5.468
			c-5.829,2.47-9.447,8.456-9.003,14.899l2.472,35.777c-0.899,0.54-1.779,1.09-2.637,1.648c-1.956,1.271-3.881,2.633-5.765,4.073
			c-8.355-6.129-17.677-10.897-27.385-13.97c-1.44-0.457-2.958-0.873-4.619-1.319c-7.151-1.925-14.293-3.01-21.287-3.01
			c-1.475,0-3.076,0.063-4.892,0.143c-5.136,0.223-10.263,0.763-15.237,1.755c-11.94,2.385-22.934,7.379-31.793,14.443
			c-8.296,6.615-15.162,15.388-19.857,25.371c-4.452,9.467-7.035,19.925-7.678,31.082c-0.617,10.719,0.578,21.499,3.551,32.043
			C17.053,166.485,19.674,172.906,22.822,178.988z"/>
		<path style="fill:#6E6E6E;" d="M21.14,177.306c1.419,2.741,2.931,5.449,4.565,8.026c0.447,0.704,0.964,1.368,1.544,1.986
			c0.153,0.226,0.308,0.45,0.466,0.673c7.97,11.198,17.623,22.401,29.512,34.25c10.134,10.1,21.293,19.975,34.115,30.191
			c10.948,8.723,23.104,17.68,37.168,27.386c0.078,0.054,0.156,0.107,0.234,0.161c0.81,0.969,1.751,1.826,2.807,2.547l1.625,1.109
			c1.114,0.758,2.229,1.513,3.352,2.268c2.304,1.55,4.987,2.369,7.762,2.369c2.851,0,5.596-0.861,7.951-2.497l0.424-0.296
			c0.96-0.667,1.917-1.335,2.864-2c29.414-20.603,51.587-38.536,69.782-56.434c0.609-0.6,1.157-1.248,1.642-1.941
			c13.171-13.017,23.922-25.651,32.824-38.571c0.115-0.166,0.227-0.334,0.338-0.503c0.172-0.227,0.327-0.454,0.467-0.673
			c0.125-0.194,0.247-0.389,0.368-0.585l0.081-0.13c9.382-14.346,14.799-31.107,15.669-48.485c0.542-10.848-0.784-21.6-3.85-31.445
			l23.477-33.151c3.728-5.262,3.77-12.236,0.105-17.354c-2.507-3.502-8.295-10.49-18.895-17.939
			c-12.269-8.623-27.484-15.521-45.224-20.498c-17.701-4.968-34.254-6.997-49.199-6.029c-12.925,0.838-21.519,3.785-25.493,5.469
			c-5.828,2.47-9.446,8.456-9.003,14.899l2.471,35.777c-0.899,0.54-1.779,1.09-2.636,1.648c-1.957,1.271-3.881,2.633-5.765,4.072
			c-8.354-6.128-17.677-10.896-27.384-13.97c-1.441-0.456-2.958-0.872-4.619-1.319c-7.152-1.924-14.293-3.009-21.287-3.009
			c-1.475,0-3.075,0.063-4.892,0.143c-5.135,0.223-10.262,0.763-15.236,1.755c-11.94,2.385-22.934,7.378-31.794,14.443
			c-8.296,6.614-15.163,15.388-19.857,25.37c-4.452,9.468-7.035,19.926-7.677,31.083c-0.617,10.719,0.578,21.499,3.551,32.042
			C15.371,164.803,17.991,171.223,21.14,177.306z"/>
		<path style="fill:#606060;" d="M19.456,175.622c1.397,2.753,2.931,5.45,4.566,8.027c0.448,0.704,0.964,1.368,1.545,1.986
			c0.153,0.226,0.307,0.45,0.466,0.673c7.97,11.198,17.624,22.4,29.512,34.25c10.134,10.1,21.293,19.976,34.115,30.191
			c10.948,8.722,23.104,17.68,37.168,27.385c0.078,0.055,0.156,0.108,0.234,0.162c0.809,0.969,1.751,1.825,2.806,2.547l1.625,1.109
			c1.114,0.758,2.229,1.513,3.352,2.268c2.303,1.551,4.987,2.37,7.762,2.37c2.851,0,5.596-0.861,7.951-2.498l0.424-0.296
			c0.96-0.667,1.917-1.335,2.864-2c29.415-20.604,51.588-38.535,69.783-56.433c0.609-0.6,1.157-1.248,1.642-1.941
			c13.171-13.017,23.921-25.651,32.824-38.571c0.115-0.166,0.227-0.334,0.338-0.503c0.172-0.229,0.329-0.454,0.468-0.674
			c0.125-0.192,0.247-0.389,0.368-0.584l0.081-0.13c9.382-14.346,14.799-31.107,15.669-48.485c0.542-10.848-0.784-21.6-3.85-31.445
			l23.477-33.151c3.728-5.262,3.77-12.236,0.105-17.354c-2.507-3.503-8.295-10.49-18.895-17.94
			c-12.268-8.624-27.483-15.52-45.223-20.499c-17.701-4.967-34.254-6.996-49.2-6.028c-12.925,0.837-21.519,3.785-25.492,5.468
			c-5.829,2.471-9.447,8.457-9.003,14.9l2.472,35.776c-0.899,0.54-1.779,1.091-2.637,1.649c-1.956,1.271-3.881,2.633-5.765,4.072
			c-8.355-6.129-17.676-10.897-27.384-13.97c-1.44-0.456-2.953-0.889-4.619-1.319c-7.132-1.996-14.293-3.01-21.287-3.01
			c-1.475,0-3.076,0.047-4.891,0.143c-5.137,0.173-10.263,0.763-15.237,1.756c-11.94,2.384-22.934,7.378-31.793,14.443
			c-8.296,6.614-15.163,15.387-19.857,25.37c-4.452,9.468-7.035,19.925-7.678,31.083c-0.617,10.718,0.578,21.498,3.551,32.042
			C13.688,163.119,16.26,169.566,19.456,175.622z"/>
	</g>
	<path style="fill:#FFFFFF;" d="M19.456,175.622c1.397,2.753,2.931,5.45,4.566,8.027c0.448,0.704,0.964,1.368,1.545,1.986
		c0.153,0.226,0.307,0.45,0.466,0.673c7.97,11.198,17.624,22.4,29.512,34.25c10.134,10.1,21.293,19.976,34.115,30.191
		c10.948,8.722,23.104,17.68,37.168,27.385c0.078,0.055,0.156,0.108,0.234,0.162c0.809,0.969,1.751,1.825,2.806,2.547l1.625,1.109
		c1.114,0.758,2.229,1.513,3.352,2.268c2.303,1.551,4.987,2.37,7.762,2.37c2.851,0,5.596-0.861,7.951-2.498l0.424-0.296
		c0.96-0.667,1.917-1.335,2.864-2c29.415-20.604,51.588-38.535,69.783-56.433c0.609-0.6,1.157-1.248,1.642-1.941
		c13.171-13.017,23.921-25.651,32.824-38.571c0.115-0.166,0.227-0.334,0.338-0.503c0.172-0.229,0.329-0.454,0.468-0.674
		c0.125-0.192,0.247-0.389,0.368-0.584l0.081-0.13c9.382-14.346,14.799-31.107,15.669-48.485c0.542-10.848-0.784-21.6-3.85-31.445
		l23.477-33.151c3.728-5.262,3.77-12.236,0.105-17.354c-2.507-3.503-8.295-10.49-18.895-17.94
		c-12.268-8.624-27.483-15.52-45.223-20.499c-17.701-4.967-34.254-6.996-49.2-6.028c-12.925,0.837-21.519,3.785-25.492,5.468
		c-5.829,2.471-9.447,8.457-9.003,14.9l2.472,35.776c-0.899,0.54-1.779,1.091-2.637,1.649c-1.956,1.271-3.881,2.633-5.765,4.072
		c-8.355-6.129-17.676-10.897-27.384-13.97c-1.44-0.456-2.953-0.889-4.619-1.319c-7.132-1.996-14.293-3.01-21.287-3.01
		c-1.475,0-3.076,0.047-4.891,0.143c-5.137,0.173-10.263,0.763-15.237,1.756c-11.94,2.384-22.934,7.378-31.793,14.443
		c-8.296,6.614-15.163,15.387-19.857,25.37c-4.452,9.468-7.035,19.925-7.678,31.083c-0.617,10.718,0.578,21.498,3.551,32.042
		C13.688,163.119,16.26,169.566,19.456,175.622z"/>
	<g>
		<g>
			<g>
				<path style="fill:#78D1F4;" d="M210.727,63.315c-28.91-4.808-53.348,6.176-69.416,21.44
					c-16.28-15.039-40.867-25.684-69.708-20.477C15.893,74.34,6.567,140.489,36.18,180.908
					c26.657,36.391,64.187,65.656,103.077,92.103c1.122,0.763,2.244,1.523,3.373,2.283c1.116-0.776,2.228-1.551,3.34-2.332
					c38.515-26.98,75.639-56.761,101.79-93.519C276.811,138.621,266.573,72.606,210.727,63.315z"/>
			</g>
			<g>
				<path style="fill:#84D1F6;" d="M129.106,202.176c1.871-0.727,3.894-1.246,6.034-1.795c4.836-1.241,9.837-2.524,13.606-6.408
					c5.334-5.496,5.661-14.735,0.729-20.596c-1.642-1.951-3.713-3.498-5.718-4.994c-3.632-2.711-5.827-4.533-5.685-6.97
					c0.085-1.452,1.087-2.914,2.247-4.608c1.223-1.781,2.607-3.803,3.14-6.296c0.629-2.942-0.024-5.89-1.888-8.522
					c-2.583-3.648-7.443-6.417-12.381-7.054c-1.479-0.19-3.075-0.279-5.022-0.279c-1.103,0-2.208,0.027-3.275,0.054
					c-1.075,0.027-2.091,0.054-3.112,0.054c-2.105,0-4.576-0.094-6.936-0.789c-4.458-1.311-8.172-4.62-12.104-8.122
					c-4.64-4.133-9.437-8.407-15.91-9.694c-1.856-0.369-3.673-0.446-5.43-0.522c-2.044-0.089-3.975-0.172-5.673-0.712
					c-1.434-0.456-2.844-1.7-3.354-2.959c-0.354-0.873-0.111-1.324-0.02-1.494c0.327-0.608,1.208-1.243,1.984-1.804l9.721-7.008
					c2.535-1.828,5.05-2.92,6.727-2.92c0.927,0,1.369,0.335,1.65,0.626c0.586,0.608,0.887,1.728,1.237,3.025
					c0.229,0.847,0.465,1.723,0.822,2.616c2.822,7.069,10.924,9.725,17.565,9.854c0.256,0.005,0.514,0.008,0.77,0.008
					c2.215,0,4.409-0.177,6.531-0.348c2.089-0.169,4.062-0.328,6.021-0.328c1.523,0,2.864,0.1,4.099,0.303
					c4.684,0.772,8.954,3.202,13.475,5.775c0.077,0.042,0.155,0.087,0.232,0.131c-0.052,0.027-0.109,0.047-0.16,0.075
					c-0.88,0.484-1.577,1.102-2.071,1.838c-1.125,1.674-0.973,3.591-0.891,4.621l0.201,2.529l0.173,2.172
					c0.045,0.566,0.113,1.42,0.514,2.308c0.582,1.288,1.608,2.069,2.221,2.537l2.043,1.557l2.044,1.557
					c0.516,0.394,1.381,1.053,2.599,1.266c0.267,0.047,0.538,0.07,0.805,0.07c2.243,0,4.06-1.533,5.031-4.172
					c0.89-0.714,1.206-1.634,1.314-2.11c0.223-0.981,0.037-1.863-0.113-2.572c-0.052-0.249-0.102-0.483-0.129-0.696
					c-0.142-1.103-0.476-2.069-0.77-2.921c-0.198-0.574-0.386-1.116-0.469-1.58c-0.038-0.211-0.119-0.564-0.276-0.956
					c2.476,0.676,4.937,1.044,7.23,1.044c4.758,0,8.858-1.51,11.856-4.364c2.764-2.632,4.358-6.499,4.376-10.609
					c0.017-4.112-1.546-7.991-4.289-10.645c-0.405-0.393-0.814-0.746-1.21-1.089c-0.84-0.726-1.634-1.412-1.815-2
					c-0.252-0.822,0.724-2.254,2.176-3.194c0.684-0.443,1.456-0.842,2.273-1.266c1.608-0.832,3.429-1.774,4.953-3.291
					c1.614-1.607,2.622-3.589,3.511-5.337c0.966-1.897,1.8-3.538,3.099-4.286c1.249-0.719,3.156-0.73,5.175-0.743
					c3.075-0.021,6.9-0.045,9.619-2.969c2.001-2.152,2.435-4.952,2.753-6.996l0.757-4.875c0.13-0.84-0.104-1.694-0.645-2.351
					c-0.54-0.656-1.335-1.05-2.185-1.083c-1.057-0.041-2.126-0.062-3.179-0.062c-19.991,0-39.191,9.398-54.401,22.952
					c-15.09-13.07-34.027-22.205-53.595-22.206c-4.932,0-9.952,0.456-14.927,1.354c-10.59,1.911-19.953,5.901-27.829,11.858
					c-0.929,0.702-1.364,1.883-1.112,3.021c0.108,0.491,0.246,0.937,0.418,1.361c0.432,1.066,1.032,1.924,1.561,2.681
					c0.343,0.49,0.667,0.953,0.861,1.363c0.633,1.336,0.5,3.278,0.36,5.334c-0.215,3.159-0.483,7.09,2.38,10.039
					c1.101,1.134,2.398,1.807,3.544,2.4c0.909,0.472,1.85,0.96,2.087,1.431c0.029,0.06,0.119,0.238-0.052,0.664
					c-0.289,0.723-1.071,1.452-1.86,1.734c-0.842,0.302-1.862,0.436-3.309,0.436c-0.587,0-1.185-0.02-1.818-0.041
					c-0.652-0.021-1.328-0.045-2.012-0.045l-0.244,0.002c-4.645,0.038-8.174,1.675-9.939,4.608
					c-0.924,1.535-1.197,3.128-1.438,4.533c-0.135,0.789-0.263,1.533-0.487,2.104c-0.726,1.855-2.927,3.158-5.257,4.536
					c-2.935,1.738-6.262,3.707-7.755,7.435c-0.75,1.873-0.837,3.76-0.913,5.424c-0.023,0.5-0.044,0.973-0.083,1.428
					c-0.012,0.148-0.013,0.297-0.003,0.445c0.978,14.678,5.596,28.901,13.354,41.133c0.557,0.877,1.515,1.383,2.516,1.383
					c0.277,0,0.557-0.038,0.832-0.119c1.273-0.369,2.149-1.537,2.147-2.862l0-0.646l-0.001-0.645c0-0.264-0.001-0.809,0.049-1.131
					c0.406,0.026,0.927,0.273,1.192,0.573c0.648,0.73,1.103,1.848,1.584,3.031c0.316,0.778,0.644,1.584,1.065,2.397
					c2.114,4.082,5.642,6.648,9.054,9.133c1.819,1.323,3.538,2.574,4.983,4.006c1.41,1.396,2.626,3.035,3.913,4.771
					c1.186,1.598,2.412,3.25,3.854,4.786c3.375,3.591,7.533,5.651,11.408,5.651c0.806,0,1.609-0.087,2.387-0.258
					c1.806-0.398,3.431-1.241,4.7-2.441c0.559-0.529,1.004-1.083,1.396-1.572c0.309-0.386,0.601-0.75,0.871-0.998
					c0.639-0.587,1.49-0.873,2.604-0.873c1.572,0,3.453,0.59,5.161,1.619c1.003,0.603,1.985,1.303,3.026,2.045
					c2.456,1.751,4.997,3.563,8.211,4.395c1.24,0.32,2.524,0.483,3.819,0.483c5.232,0,9.937-2.577,14.486-5.068
					C124.782,204.2,126.938,203.02,129.106,202.176z M124.169,137.633c0.193,0,0.385,0.004,0.577,0.006
					c-0.203-0.002-0.405-0.006-0.607-0.005C124.148,137.634,124.158,137.633,124.169,137.633z M195.711,64.783
					c0.106,0,0.215,0.006,0.321,0.006c-0.344-0.001-0.686,0.001-1.029,0.004C195.24,64.79,195.474,64.783,195.711,64.783z
					 M179.667,66.461c-1.314,0.278-2.612,0.59-3.893,0.932C177.055,67.051,178.353,66.739,179.667,66.461z M158.993,123.965
					c-0.17,0.005-0.337,0.018-0.508,0.018c-0.076,0-0.154-0.007-0.231-0.008C158.502,123.978,158.748,123.972,158.993,123.965z
					 M149.816,131.756c0.072,0.561,0.212,1.072,0.281,1.506C150.028,132.828,149.888,132.317,149.816,131.756
					c-0.072-0.561-0.225-1.105-0.4-1.645C149.591,130.65,149.744,131.194,149.816,131.756z M149.205,134.692
					c0.092-0.018,0.176-0.042,0.252-0.067c-0.076,0.025-0.16,0.049-0.252,0.068c-0.021,0.094-0.045,0.188-0.07,0.285
					C149.16,134.882,149.183,134.787,149.205,134.692z M148.598,127.398c0.026,0.146,0.06,0.289,0.094,0.433
					C148.658,127.688,148.624,127.545,148.598,127.398c-0.001-0.002-0.001-0.003-0.001-0.005
					C148.597,127.396,148.598,127.396,148.598,127.398z M148.398,126.843c0.001,0,0.001,0.001,0.002,0.001
					C148.399,126.844,148.399,126.843,148.398,126.843L148.398,126.843z M146.926,137.925c-0.085,0.015-0.17,0.022-0.259,0.022
					c-0.001,0-0.002,0-0.003,0C146.754,137.947,146.841,137.939,146.926,137.925z M142.717,122.518c0.028,0,0.056,0.006,0.084,0.007
					c-0.114-0.003-0.228,0.004-0.342,0.01C142.545,122.529,142.631,122.518,142.717,122.518z M108.997,111.882
					c-0.055,0-0.11,0.003-0.166,0.003c-0.237,0-0.475-0.002-0.713-0.007C108.411,111.884,108.704,111.883,108.997,111.882z
					 M87.716,65.53c0.188,0,0.374,0.005,0.561,0.007c-0.6-0.004-1.201-0.003-1.806,0.006C86.886,65.537,87.302,65.529,87.716,65.53z
					 M45.789,109.121c0.073,0,0.146,0,0.219,0c0.073,0,0.147,0.003,0.22,0.004C46.082,109.124,45.935,109.121,45.789,109.121z
					 M75.84,205.14c-0.116,0-0.231-0.009-0.348-0.014c0.15,0.006,0.299,0.01,0.449,0.008C75.907,205.135,75.873,205.14,75.84,205.14
					z M108.014,207.538c-0.014,0-0.028-0.001-0.043-0.001c0.042,0,0.081-0.002,0.122-0.002
					C108.067,207.535,108.04,207.538,108.014,207.538z"/>
				<path style="fill:#84D1F6;" d="M199.101,202.478l-0.437-0.072c-0.461-0.075-1.194-0.194-1.523-0.334
					c0.049-0.518,0.545-1.626,0.852-2.312c0.227-0.508,0.462-1.033,0.668-1.573c3.587-9.429-6.005-18.016-9.158-20.838
					c-3.504-3.137-8.304-7.434-14.392-8.147c-0.438-0.051-0.889-0.077-1.338-0.077c-3.643,0-7.342,1.676-9.656,4.373
					c-1.853,2.161-2.651,4.794-2.247,7.413c0.248,1.608,0.899,3.138,1.474,4.487c0.471,1.106,1.26,2.958,0.936,3.307
					c-0.119,0.128-0.532,0.352-0.864,0.532c-0.524,0.283-1.177,0.637-1.802,1.154c-2.526,2.095-2.83,5.119-3.074,7.551
					c-0.145,1.441-0.281,2.804-0.811,3.582c-0.883,1.296-3.281,1.687-5.82,2.1c-3.753,0.611-8.425,1.373-10.007,6.047
					c-1.496,4.419,1.374,7.777,3.678,10.477c1.408,1.648,2.864,3.352,2.973,4.839c0.137,1.874-2.006,3.754-4.056,4.706
					c-1.054,0.491-2.196,0.887-3.406,1.308c-2.119,0.735-4.31,1.496-6.357,2.869c-0.511,0.344-1.003,0.71-1.479,1.064
					c-1.024,0.765-2.299,1.714-2.999,1.714c-0.06,0-0.113-0.007-0.173-0.024c-0.344-0.099-0.915-0.648-1.417-1.134
					c-0.789-0.761-1.769-1.706-3.119-2.301c-0.876-0.386-1.789-0.582-2.712-0.582c-2.109,0-4.143,1.025-5.725,2.889
					c-2.05,2.413-3.056,5.912-2.564,8.914c1.144,6.98,6.613,12.646,16.718,17.321c1.429,0.66,4.401,2.036,4.598,3.595
					c0.093,0.735-0.382,1.809-0.835,2.758c-0.632,1.326-0.204,2.915,1.009,3.744l0.589,0.402l1.017,0.693
					c1.097,0.747,2.196,1.491,3.302,2.235c0.503,0.339,1.083,0.509,1.664,0.509c0.596,0,1.191-0.18,1.702-0.535l0.436-0.303
					c0.945-0.658,1.89-1.315,2.834-1.979c28.907-20.248,50.639-37.813,68.388-55.272c1.123-1.105,1.192-2.894,0.156-4.082
					C212.558,209.406,206.915,203.816,199.101,202.478z M122.789,235.59c0.015,0,0.03-0.004,0.046-0.004
					c0.009,0,0.018,0.001,0.027,0.001C122.838,235.587,122.814,235.588,122.789,235.59z M172.885,172.148
					c0.296-0.029,0.593-0.044,0.889-0.044c0.008,0,0.017,0.001,0.025,0.001C173.495,172.104,173.189,172.117,172.885,172.148z"/>
				<path style="fill:#84D1F6;" d="M261.281,111.229c-4.366-17.793-14.879-32.203-29.601-40.576c-0.453-0.258-0.961-0.39-1.473-0.39
					c-0.284,0-0.569,0.039-0.846,0.122l-0.158,0.047c-1.287,0.381-2.619,0.775-3.91,1.119l-0.749,0.198
					c-2.785,0.729-5.941,1.555-8.456,3.802c-1.889,1.688-3.091,4.285-3.137,6.777c-0.038,2.081,0.713,3.97,2.115,5.318
					c0.657,0.632,1.368,1.062,1.939,1.408c0.375,0.229,0.764,0.464,0.918,0.633c0.438,0.479-0.09,1.699-1.362,4.086
					c-1.107,2.078-2.363,4.434-2.477,7.049c-0.165,3.828,2.103,6.639,4.104,9.118c1.457,1.806,2.833,3.511,2.813,5.097
					c-0.025,1.974-2.208,3.895-4.563,5.676l-3.957,2.991l-12.296,9.301c-3.251,2.459-8.296,7.407-5.564,12.928
					c1.343,2.714,4.186,4.271,7.8,4.271c1.279,0,2.601-0.206,3.823-0.597c1.263-0.403,2.42-0.926,3.539-1.431
					c1.55-0.702,3.014-1.363,4.417-1.524c0.26-0.03,0.54-0.046,0.83-0.046c1.366,0,2.871,0.325,4.464,0.668
					c1.777,0.383,3.615,0.778,5.516,0.778c1.818,0,3.41-0.362,4.869-1.108c1.842-0.942,3.368-2.454,4.713-3.788
					c1.023-1.014,2.569-2.547,3.247-2.547c0.06,0,0.141,0.023,0.24,0.071c0.271,0.128,0.713,0.632,1.278,2.305
					c1.983,5.878,2.724,12.249,2.142,18.426c-0.051,0.545-0.112,1.091-0.174,1.637c-0.251,2.243-0.51,4.562-0.183,7.007
					c0.393,2.945,1.732,5.744,3.871,8.094c0.567,0.623,1.368,0.974,2.203,0.974c0.083,0,0.165-0.003,0.248-0.011
					c0.922-0.076,1.756-0.576,2.257-1.355C262.364,158.129,266.686,133.26,261.281,111.229z M202.421,147.225
					c-0.026,0-0.052-0.003-0.078-0.004c0.032,0.001,0.064,0.003,0.097,0.003C202.434,147.224,202.427,147.225,202.421,147.225z
					 M225.009,145.074c-0.038,0-0.077-0.006-0.114-0.006c0.045,0,0.091,0.005,0.137,0.005
					C225.023,145.073,225.016,145.074,225.009,145.074z"/>
				<path style="fill:#84D1F6;" d="M196.956,97.662c-0.165,0.405-0.32,0.788-0.481,1.137c-0.461,0.998-1.117,2.007-1.751,2.982
					c-1.489,2.291-3.176,4.889-2.023,7.654c1.11,2.661,4.144,3.603,6.663,4.125c1.027,0.214,1.992,0.321,2.867,0.321
					c2.326,0,4.188-0.738,5.533-2.195c2.621-2.837,2.272-7.227,1.934-11.472c-0.087-1.098-0.17-2.135-0.193-3.083
					c-0.017-0.691-0.043-1.736-0.544-2.809c-0.831-1.778-2.59-2.862-4.706-2.899l-0.11-0.001c-1.664,0-3.355,0.67-4.522,1.792
					C198.208,94.576,197.542,96.216,196.956,97.662z M206.263,95.584c0.026,0.056,0.041,0.115,0.062,0.172
					C206.303,95.699,206.289,95.64,206.263,95.584L206.263,95.584z M204.145,94.402c0.02,0,0.039,0,0.058,0.001
					c-0.137-0.003-0.277,0.02-0.417,0.033C203.906,94.424,204.027,94.402,204.145,94.402z M202.247,110.902c-0.005,0-0.01,0-0.015,0
					c-0.016,0-0.035-0.002-0.051-0.002C202.203,110.9,202.227,110.902,202.247,110.902z"/>
				<path style="fill:#84D1F6;" d="M218.945,166.333c-0.306-0.183-0.76-0.454-0.911-0.603c-0.023-0.058-0.068-0.186-0.103-0.283
					c-0.154-0.431-0.364-1.02-0.781-1.627c-0.756-1.099-2.297-2.409-5.343-2.409c-0.09,0-0.181,0.002-0.27,0.004
					c-2.537,0.063-10.257,0.251-12.261,6.61c-1.161,3.682,1.637,9.46,3.673,12.237c2.016,2.749,4.265,4.202,6.504,4.202
					c1.759,0,3.362-0.892,4.515-2.513c0.496-0.697,0.847-1.406,1.156-2.031c0.294-0.596,0.573-1.159,0.851-1.432
					c0.289-0.284,0.885-0.557,1.515-0.845c0.465-0.213,0.991-0.453,1.519-0.754c2.714-1.546,4.058-4.271,3.342-6.779
					C221.751,168.005,220.063,166.998,218.945,166.333z M209.454,181.485c-0.063,0-0.126-0.009-0.189-0.015
					c0.094,0.009,0.188,0.014,0.281,0.01C209.515,181.482,209.484,181.485,209.454,181.485z M211.611,164.394
					c0.065-0.001,0.13-0.002,0.196-0.002c0.041,0,0.082,0.003,0.122,0.003C211.822,164.394,211.715,164.392,211.611,164.394z
					 M214.776,165.656c0.129,0.223,0.23,0.462,0.319,0.707C215.006,166.118,214.905,165.879,214.776,165.656z M215.46,167.238
					c-0.079-0.137-0.143-0.281-0.202-0.428C215.317,166.957,215.381,167.102,215.46,167.238c0.145,0.252,0.33,0.472,0.541,0.67
					C215.79,167.71,215.605,167.49,215.46,167.238z M218.407,173.672c0.27-0.244,0.512-0.518,0.704-0.813
					C218.919,173.154,218.677,173.428,218.407,173.672z M219.519,171.882c0.061-0.311,0.059-0.633-0.033-0.954
					c-0.032-0.113-0.072-0.219-0.119-0.318c-0.165-0.353-0.419-0.643-0.721-0.897c0.303,0.255,0.556,0.545,0.721,0.897
					c0.047,0.1,0.087,0.205,0.119,0.318C219.578,171.249,219.58,171.57,219.519,171.882z"/>
			</g>
			<g>
				<path style="fill:#AAD24E;" d="M141.311,84.756c-16.28-15.039-40.867-25.684-69.708-20.477
					c-10.803,1.951-19.859,6.014-27.228,11.587c0.068,0.307,0.156,0.61,0.277,0.909c0.585,1.441,1.746,2.579,2.413,3.984
					c2.211,4.668-1.357,11.234,2.24,14.939c1.85,1.905,5.118,2.311,6.31,4.684c1.292,2.575-0.947,5.733-3.659,6.704
					c-2.712,0.972-5.692,0.516-8.573,0.539c-2.88,0.023-6.111,0.776-7.597,3.244c-1.136,1.889-0.942,4.293-1.746,6.345
					c-2.251,5.746-11.053,6.563-13.348,12.292c-0.771,1.927-0.639,4.065-0.811,6.142c0.943,14.158,5.408,28.414,13.221,40.731
					c-0.001-0.441-0.001-0.882-0.002-1.322c-0.001-1.044,0.018-2.157,0.596-3.025c1.288-1.935,4.473-1.314,6.015,0.424
					c1.542,1.737,2.075,4.125,3.144,6.189c2.901,5.601,9.344,8.264,13.826,12.701c3.02,2.989,5.13,6.781,8.04,9.877
					c2.909,3.096,7.11,5.55,11.259,4.637c1.251-0.274,2.444-0.857,3.375-1.738c0.862-0.815,1.482-1.86,2.355-2.664
					c3.059-2.814,8.041-1.748,11.603,0.396c3.561,2.143,6.685,5.219,10.708,6.26c8.244,2.135,15.727-4.859,23.665-7.945
					c6.457-2.509,14.223-2.717,19.047-7.688c4.333-4.466,4.609-12.259,0.602-17.021c-4.241-5.039-12.784-7.831-12.401-14.406
					c0.253-4.343,4.676-7.386,5.585-11.639c1.35-6.316-5.626-11.475-12.031-12.3c-6.405-0.826-13.084,0.738-19.279-1.085
					c-10.919-3.213-17.285-15.979-28.45-18.197c-3.863-0.769-7.956-0.158-11.71-1.351c-3.754-1.192-7.088-5.451-5.224-8.921
					c0.655-1.22,1.816-2.071,2.938-2.88c3.322-2.396,6.644-4.79,9.965-7.185c3.773-2.721,9.344-5.342,12.572-1.993
					c1.707,1.771,1.837,4.485,2.749,6.77c2.267,5.677,9.117,8.062,15.229,8.18c6.111,0.117,12.266-1.33,18.297-0.335
					c7.741,1.277,14.218,6.369,21.292,9.762c7.074,3.393,16.407,4.761,22.09-0.649c4.687-4.463,4.721-12.881,0.07-17.382
					c-1.438-1.393-3.309-2.55-3.896-4.464c-0.798-2.599,1.209-5.258,3.49-6.734c2.282-1.477,4.988-2.354,6.913-4.271
					c3.041-3.028,3.688-8.206,7.407-10.347c4.382-2.523,11.009,0.466,14.453-3.238c1.366-1.469,1.732-3.578,2.041-5.561
					c0.258-1.665,0.517-3.33,0.775-4.997C175.896,61.294,155.39,71.381,141.311,84.756z"/>
				<path style="fill:#AAD24E;" d="M200.026,206.334c-1.426-0.244-3.045-0.4-3.947-1.531c-1.55-1.943,0.273-4.64,1.156-6.963
					c2.522-6.628-3.286-13.27-8.57-17.999c-3.818-3.418-7.982-6.998-13.071-7.595c-5.089-0.596-10.981,3.441-10.201,8.505
					c0.572,3.709,4.243,7.781,1.692,10.531c-0.826,0.89-2.089,1.229-3.023,2.003c-2.965,2.459-1.239,7.596-3.407,10.779
					c-3.458,5.076-13.887,1.795-15.855,7.612c-1.789,5.282,6.564,8.935,6.971,14.497c0.254,3.47-2.76,6.35-5.915,7.816
					c-3.155,1.468-6.706,2.111-9.596,4.049c-2.298,1.541-4.653,3.986-7.313,3.222c-2.012-0.578-3.12-2.817-5.037-3.661
					c-4.042-1.78-7.747,3.854-7.032,8.213c1.228,7.489,8.519,12.291,15.406,15.478c2.81,1.3,6.073,3.003,6.461,6.074
					c0.198,1.566-0.444,3.091-1.128,4.525c0.547,0.373,1.093,0.749,1.641,1.121c1.122,0.763,2.244,1.523,3.373,2.283
					c1.116-0.776,2.228-1.551,3.34-2.332c24.648-17.265,48.72-35.683,69.717-56.337
					C211.366,211.669,206.359,207.419,200.026,206.334z"/>
				<path style="fill:#AAD24E;" d="M232.426,70.847c-1.417,0.42-2.832,0.841-4.25,1.219c-2.887,0.77-5.958,1.435-8.187,3.426
					c-2.229,1.991-3.119,5.85-0.965,7.921c0.914,0.88,2.211,1.296,3.066,2.233c3.326,3.64-2.925,8.681-3.138,13.605
					c-0.238,5.497,7.164,8.979,7.092,14.479c-0.045,3.496-3.1,6.105-5.889,8.214c-5.554,4.2-11.107,8.401-16.661,12.601
					c-3.075,2.326-6.518,6.008-4.809,9.463c1.378,2.783,5.29,3.155,8.249,2.211c2.958-0.945,5.648-2.799,8.734-3.154
					c5.063-0.584,10.492,2.936,15.03,0.614c4.047-2.069,6.989-8.405,11.1-6.464c1.569,0.741,2.344,2.504,2.899,4.148
					c2.177,6.455,2.981,13.368,2.342,20.15c-0.256,2.722-0.742,5.461-0.379,8.17c0.336,2.509,1.514,4.792,3.2,6.646
					C272.28,141.533,267.662,90.888,232.426,70.847z"/>
				<path style="fill:#AAD24E;" d="M208.154,95.411c-0.015-0.565-0.033-1.149-0.272-1.662c-0.383-0.82-1.211-1.195-2.111-1.211
					c-0.918-0.017-1.911,0.343-2.578,0.983c-1.318,1.269-1.803,3.144-2.571,4.804c-2.383,5.155-8.011,9.032,0.81,10.861
					C210.857,111.142,208.315,101.877,208.154,95.411z"/>
				<path style="fill:#AAD24E;" d="M147.546,126.545c0.141-1.723-0.729-3.49-2.18-4.43c-1.45-0.94-3.419-1.01-4.934-0.177
					c-0.412,0.226-0.797,0.521-1.06,0.911c-0.535,0.796-0.48,1.835-0.403,2.79c0.128,1.607,0.256,3.214,0.384,4.82
					c0.037,0.46,0.076,0.929,0.266,1.35c0.273,0.603,0.819,1.028,1.345,1.43c1.396,1.063,2.793,2.127,4.189,3.191
					c0.407,0.311,0.835,0.63,1.338,0.718c1.604,0.281,2.54-1.722,2.901-3.31c1.514-0.32,0.824-1.475,0.626-3.011
					c-0.198-1.535-0.975-2.942-1.248-4.467C148.57,125.24,148.566,126.035,147.546,126.545z"/>
				<path style="fill:#AAD24E;" d="M213.364,164.285c1.17-0.029,2.499,0.18,3.163,1.144c0.367,0.533,0.461,1.21,0.784,1.771
					c0.948,1.653,3.604,1.949,4.126,3.782c0.394,1.383-0.751,2.747-2,3.459c-1.25,0.712-2.713,1.105-3.739,2.114
					c-1.105,1.087-1.507,2.695-2.405,3.959c-3.857,5.423-10.872-7.744-9.66-11.589C204.876,164.982,209.75,164.373,213.364,164.285z
					"/>
			</g>
			<path style="opacity:0.5;fill:#80CDDE;" d="M260.678,108.104c2.973,19.695-1.28,41.159-11.194,58.384
				c-16.139,28.021-45.185,48.345-75.492,58.497c-15.498,5.192-32.083,8.045-48.435,6.283c-15.781-1.698-30.894-7.09-44.529-15.162
				c-13.605-8.058-26.683-18.083-36.341-30.712c-9.735-12.724-16.429-27.565-20.306-43.084c-2.746-10.997-3.552-22.275-1.867-33.438
				c-6.546,23.349-1.65,51.133,13.665,72.036c26.657,36.391,64.187,65.656,103.077,92.103c1.122,0.763,2.244,1.523,3.373,2.283
				c1.116-0.776,2.228-1.551,3.34-2.332c38.515-26.98,75.639-56.761,101.79-93.519C262.595,158.597,267.179,131.182,260.678,108.104
				z"/>
			<g>
				<path style="opacity:0.5;fill:#FFFFFF;" d="M114.239,83.716c-3.451-4.074-8.19-7.231-13.69-8.901
					c-5.405-1.635-11.743-1.355-17.307-0.827c-10.652,1.011-19.698,6.382-27.239,13.697c-7.072,6.859-10.928,17.142-11.421,26.861
					c-0.589,11.598,8.688,19.287,19.264,21.072c10.758,1.817,22.866-1.877,32.448-6.557c8.127-3.968,17.884-10.699,21.741-19.193
					C122.324,100.428,120.182,90.719,114.239,83.716z"/>
				<path style="opacity:0.5;fill:#FFFFFF;" d="M51.568,141.895c-0.523-0.613-1.238-1.089-2.065-1.342
					c-0.815-0.248-1.771-0.205-2.613-0.124c-1.604,0.152-2.968,0.962-4.106,2.065c-1.07,1.035-1.65,2.584-1.721,4.051
					c-0.091,1.751,1.309,2.907,2.904,3.177c1.623,0.274,3.448-0.282,4.894-0.987c1.226-0.599,2.697-1.613,3.279-2.896
					C52.788,144.413,52.463,142.952,51.568,141.895z"/>
			</g>
			<path style="fill:#1A74B2;" d="M210.63,63.014c-10.453-1.715-21.154-1.541-31.5,0.791c-9.38,2.114-18.345,5.963-26.401,11.204
				c-4.288,2.789-8.309,5.973-12.022,9.489c0.372,0.071,0.744,0.142,1.117,0.213c-9.017-8.3-19.809-14.642-31.5-18.342
				c-13.093-4.147-27.138-4.819-40.597-2.133c-9.832,1.964-19.258,6.002-27.122,12.272c-7.185,5.729-12.876,13.174-16.781,21.478
				c-3.981,8.465-6.12,17.738-6.657,27.062c-0.551,9.569,0.559,19.23,3.159,28.45c2.664,9.451,6.911,18.471,12.607,26.476
				c8.379,11.772,18.099,22.656,28.323,32.847c10.476,10.441,21.645,20.17,33.21,29.385c11.843,9.436,24.102,18.337,36.561,26.936
				c3.057,2.109,6.126,4.203,9.206,6.277c0.222,0.15,0.747,0.309,0.999,0.134c20.196-14.06,40.018-28.733,58.457-45.057
				c17.503-15.494,34.123-32.563,47.421-51.86c9.032-13.107,14.2-28.824,14.995-44.705c0.749-14.974-2.419-30.34-10.416-43.143
				c-8.328-13.333-21.612-22.559-36.782-26.447C214.835,63.809,212.741,63.368,210.63,63.014c-0.907-0.152-0.387,0.506,0.193,0.604
				c8.214,1.381,16.173,4.144,23.259,8.563c6.375,3.977,11.903,9.229,16.273,15.336c8.724,12.188,12.64,27.346,12.56,42.22
				c-0.083,15.618-4.447,31.248-12.567,44.598c-2.562,4.211-5.535,8.17-8.537,12.073c-3.521,4.579-7.201,9.036-11.012,13.376
				c-7.794,8.877-16.137,17.266-24.835,25.254c-17.661,16.22-36.76,30.802-56.313,44.649c-2.534,1.794-5.077,3.575-7.625,5.349
				c0.333,0.045,0.665,0.09,0.998,0.133c-12.467-8.393-24.763-17.059-36.712-26.179c-11.63-8.876-22.932-18.2-33.639-28.177
				c-10.601-9.878-20.616-20.41-29.667-31.733c-3.708-4.639-7.371-9.359-10.427-14.462c-2.491-4.156-4.611-8.536-6.357-13.057
				c-3.44-8.907-5.43-18.382-5.826-27.923c-0.386-9.29,0.761-18.687,3.66-27.533c2.809-8.568,7.3-16.597,13.444-23.222
				c6.498-7.005,14.69-12.237,23.684-15.423c12.187-4.317,25.729-5.263,38.449-3.117c12.556,2.119,24.477,7.382,34.646,15.024
				c2.263,1.7,4.434,3.517,6.517,5.433c0.199,0.184,0.874,0.444,1.117,0.214c13.696-12.965,31.617-21.162,50.494-22.358
				c6.154-0.39,12.333-0.035,18.415,0.963C211.73,63.767,211.211,63.108,210.63,63.014z"/>
		</g>
		<g>
			<g>
				<g>
					<path style="fill:#FFFFFF;" d="M258.642,101.229c0,0-13.889-16.017-45.483-24.882c-31.593-8.866-51.788-2.415-51.788-2.415
						l-3.196-46.266c-0.117-1.684,0.754-3.188,2.18-3.793c6.831-2.895,28.947-9.713,67.24,1.033
						c38.382,10.771,53.702,28.153,57.99,34.143c0.89,1.242,0.822,2.972-0.141,4.332L258.642,101.229z"/>
					<path style="fill:#BCBCBC;" d="M258.679,101.762l-0.298-0.343c-0.035-0.04-3.544-4.044-10.853-9.074
						c-6.745-4.644-18.198-11.135-34.454-15.696c-16.256-4.563-29.415-4.976-37.59-4.521c-8.859,0.494-13.939,2.087-13.99,2.103
						l-0.433,0.139l-3.226-46.697c-0.125-1.82,0.804-3.424,2.367-4.087c3.335-1.413,10.62-3.893,21.936-4.625
						c13.71-0.888,29.032,1.012,45.542,5.646c16.543,4.642,30.638,11.006,41.892,18.917c9.276,6.519,14.19,12.421,16.293,15.36
						c0.956,1.335,0.902,3.216-0.134,4.679L258.679,101.762z M186.844,71.533c7.301,0.422,16.251,1.664,26.4,4.512
						c16.37,4.594,27.904,11.137,34.699,15.817c6.159,4.242,9.651,7.771,10.655,8.842l26.56-37.505
						c0.892-1.261,0.951-2.86,0.147-3.985c-14.788-20.655-47.975-31.251-57.794-34.006c-9.805-2.751-43.612-10.958-67.003-1.047
						c-1.299,0.551-2.1,1.957-1.994,3.499l3.167,45.847c1.415-0.392,6.233-1.589,13.7-2.007
						C178.512,71.324,182.369,71.274,186.844,71.533z"/>
				</g>
				<path style="fill:#E2E2E2;" d="M258.642,101.229c0,0-13.889-16.017-45.483-24.882c-31.593-8.866-51.788-2.415-51.788-2.415
					l-3.196-46.266c0,0,3.965,30.412,56.012,45.017c52.047,14.605,71.257-9.302,71.257-9.302L258.642,101.229z"/>
			</g>
			<path style="fill:#E55957;" d="M231.463,51.352l-6.206-1.741l1.741-6.206c0.175-0.624-0.188-1.271-0.812-1.446l-6.176-1.732
				c-0.624-0.176-1.271,0.188-1.447,0.813l-1.741,6.205l-6.206-1.742c-0.624-0.174-1.271,0.189-1.446,0.813l-1.733,6.176
				c-0.175,0.623,0.188,1.271,0.812,1.446l6.206,1.741l-1.742,6.206c-0.175,0.624,0.189,1.271,0.813,1.445l6.176,1.734
				c0.624,0.175,1.271-0.189,1.446-0.813l1.742-6.206l6.206,1.741c0.624,0.176,1.271-0.189,1.446-0.813l1.734-6.176
				C232.451,52.175,232.087,51.527,231.463,51.352z"/>
		</g>
	</g>
</g>
</svg>
